<svg xmlns="http://www.w3.org/2000/svg" width="162" height="61" viewBox="0 0 162 61" fill="none">
  <g clip-path="url(#clip0_11669_6111)">
    <path d="M67.4974 51.8856L54.2485 54.8576C54.2485 54.8576 51.547 54.5518 54.1089 50.8009C54.3389 50.463 54.6121 50.0997 54.933 49.705L61.7992 46.354L61.7354 45.9035L60.2735 35.6511L59.7082 31.6831L64.0177 27.6991L64.8405 26.938L75.7777 36.9983L75.6995 37.1414L71.1275 45.3594L67.4974 51.8856Z" fill="#FFB7B7"/>
    <path d="M62.5987 48.8978L49.3498 51.8698C49.1509 51.8474 48.959 51.7833 48.7869 51.6817C48.6147 51.5801 48.4662 51.4433 48.3511 51.2804C48.236 51.1175 48.157 50.9322 48.1193 50.7367C48.0815 50.5412 48.0859 50.34 48.1321 50.1463C48.1963 49.7631 48.317 49.3915 48.4903 49.0434C48.911 48.2102 49.4293 47.4294 50.0342 46.7172L56.9005 43.3662L56.0585 37.4616L55.6392 34.517L55.3677 32.6133L54.8095 28.6953L59.9417 23.9502L65.5313 29.0903L70.879 34.0105L70.1572 35.3059L69.2967 36.8541L65.1672 44.2808L64.3258 45.7937L62.5987 48.8978Z" fill="#FFB7B7"/>
    <path d="M85.6326 46.8223C85.6326 46.8223 80.6683 46.4937 78.8116 43.1539C78.2238 42.0489 77.9973 40.7892 78.1635 39.5502L76.1402 35.5727L73.2605 29.9055L65.9145 28.7521L65.5312 29.0903L60.2046 33.7962L58.575 35.2362L56.0585 37.4616L43.8545 48.2439C43.3686 49.1048 42.7443 49.8807 42.0062 50.5409C41.3279 51.1668 40.5816 51.7155 39.7809 52.1768C37.4523 53.5205 33.9713 54.565 28.966 54.0165L2.5789 61L0 43.4022L22.132 36.166L54.5898 15.0535L76.5008 20.6295L86.6613 34.9762L85.6326 46.8223Z" fill="#FFB7B7"/>
    <path d="M160.661 0H68.2555C67.9004 0.000395181 67.56 0.140832 67.3089 0.390493C67.0579 0.640154 66.9167 0.978654 66.9163 1.33173V55.7422C66.9166 56.0953 67.0579 56.4338 67.3089 56.6835C67.56 56.9331 67.9004 57.0736 68.2555 57.0739H160.661C161.016 57.0736 161.356 56.9331 161.607 56.6834C161.858 56.4338 162 56.0953 162 55.7422V1.33172C162 0.978653 161.858 0.640164 161.607 0.390508C161.356 0.140852 161.016 0.000410796 160.661 0Z" fill="white"/>
    <path d="M160.661 0H68.2555C67.9004 0.000395181 67.56 0.140832 67.3089 0.390493C67.0579 0.640154 66.9167 0.978654 66.9163 1.33173V55.7422C66.9166 56.0953 67.0579 56.4338 67.3089 56.6835C67.56 56.9331 67.9004 57.0736 68.2555 57.0739H160.661C161.016 57.0736 161.356 56.9331 161.607 56.6834C161.858 56.4338 162 56.0953 162 55.7422V1.33172C162 0.978653 161.858 0.640164 161.607 0.390508C161.356 0.140852 161.016 0.000410796 160.661 0ZM161.617 55.7422C161.617 55.9945 161.516 56.2364 161.337 56.4147C161.158 56.5931 160.914 56.6934 160.661 56.6934H68.2555C68.0018 56.6934 67.7585 56.5931 67.5792 56.4147C67.3998 56.2364 67.299 55.9945 67.2989 55.7422V1.33172C67.299 1.07947 67.3998 0.837584 67.5792 0.659217C67.7586 0.480851 68.0018 0.380601 68.2555 0.380493H160.661C160.914 0.3806 161.158 0.48085 161.337 0.659217C161.516 0.837584 161.617 1.07947 161.617 1.33172V55.7422Z" fill="#4B4B60"/>
    <path d="M77.2466 7.42004C76.7925 7.42004 76.3487 7.28615 75.9711 7.03529C75.5936 6.78444 75.2993 6.42789 75.1256 6.01073C74.9518 5.59358 74.9063 5.13455 74.9949 4.6917C75.0835 4.24885 75.3021 3.84207 75.6232 3.52279C75.9443 3.20351 76.3534 2.98608 76.7987 2.89799C77.244 2.80991 77.7057 2.85511 78.1252 3.02791C78.5447 3.2007 78.9032 3.49331 79.1555 3.86874C79.4077 4.24417 79.5424 4.68556 79.5424 5.13708C79.5424 5.74256 79.3005 6.32324 78.87 6.75138C78.4394 7.17952 77.8555 7.42004 77.2466 7.42004ZM77.2466 3.23461C76.8682 3.23461 76.4983 3.3462 76.1837 3.55524C75.8691 3.76429 75.6239 4.06141 75.4791 4.40904C75.3343 4.75667 75.2964 5.13919 75.3702 5.50823C75.444 5.87727 75.6262 6.21627 75.8938 6.48233C76.1613 6.7484 76.5022 6.92958 76.8734 7.00299C77.2445 7.0764 77.6291 7.03873 77.9787 6.89473C78.3283 6.75074 78.6271 6.50689 78.8373 6.19404C79.0475 5.88118 79.1597 5.51336 79.1597 5.13708C79.1597 4.88725 79.1103 4.63986 79.0141 4.40904C78.918 4.17822 78.7771 3.9685 78.5994 3.79184C78.4218 3.61518 78.2108 3.47504 77.9787 3.37944C77.7466 3.28383 77.4978 3.23461 77.2466 3.23461Z" fill="#0052FF"/>
    <path d="M73.6781 5.13708C73.6782 4.7016 73.8148 4.27698 74.0691 3.92238C74.3233 3.56778 74.6824 3.30085 75.0963 3.15879C74.7794 3.05004 74.4408 3.0182 74.109 3.0659C73.7771 3.1136 73.4615 3.23946 73.1885 3.43301C72.9154 3.62657 72.6928 3.88219 72.5393 4.17861C72.3857 4.47502 72.3055 4.80364 72.3055 5.13708C72.3055 5.47053 72.3857 5.79914 72.5393 6.09555C72.6928 6.39197 72.9154 6.6476 73.1885 6.84115C73.4615 7.0347 73.7771 7.16057 74.109 7.20827C74.4408 7.25597 74.7794 7.22412 75.0963 7.11538C74.6824 6.97331 74.3233 6.70638 74.0691 6.35178C73.8148 5.99718 73.6782 5.57257 73.6781 5.13708Z" fill="#0052FF"/>
    <path d="M86.5529 32.1098C86.0964 32.1093 85.6587 31.9287 85.3359 31.6077C85.0131 31.2868 84.8316 30.8516 84.8311 30.3976V25.2609C84.8316 24.8072 85.0132 24.3722 85.3361 24.0516C85.6589 23.7309 86.0966 23.5508 86.5529 23.5508C87.0092 23.5508 87.4469 23.7309 87.7697 24.0516C88.0926 24.3722 88.2742 24.8072 88.2747 25.2609V30.3976C88.2742 30.8516 88.0926 31.2868 87.7699 31.6077C87.4471 31.9287 87.0094 32.1093 86.5529 32.1098Z" fill="#0052FF"/>
    <path d="M91.1444 32.1098C90.6879 32.1093 90.2503 31.9287 89.9275 31.6077C89.6047 31.2868 89.4231 30.8516 89.4226 30.3976V25.2609C89.4232 24.8072 89.6048 24.3722 89.9276 24.0516C90.2505 23.7309 90.6881 23.5508 91.1444 23.5508C91.6007 23.5508 92.0384 23.7309 92.3612 24.0516C92.6841 24.3722 92.8657 24.8072 92.8662 25.2609V30.3976C92.8657 30.8516 92.6842 31.2868 92.3614 31.6077C92.0386 31.9287 91.6009 32.1093 91.1444 32.1098Z" fill="#0052FF"/>
    <path d="M95.7361 32.1098C95.2796 32.1093 94.842 31.9287 94.5192 31.6077C94.1964 31.2868 94.0148 30.8516 94.0143 30.3976V25.2609C94.0148 24.8072 94.1965 24.3722 94.5193 24.0516C94.8422 23.7309 95.2798 23.5508 95.7361 23.5508C96.1924 23.5508 96.63 23.7309 96.9529 24.0516C97.2757 24.3722 97.4574 24.8072 97.4579 25.2609V30.3976C97.4574 30.8516 97.2758 31.2868 96.953 31.6077C96.6302 31.9287 96.1926 32.1093 95.7361 32.1098Z" fill="#0052FF"/>
    <path d="M102.815 32.1098C102.358 32.1093 101.921 31.9287 101.598 31.6077C101.275 31.2868 101.093 30.8516 101.093 30.3976V25.2609C101.093 24.8072 101.275 24.3722 101.598 24.0516C101.921 23.7309 102.358 23.5508 102.815 23.5508C103.271 23.5508 103.709 23.7309 104.032 24.0516C104.354 24.3722 104.536 24.8072 104.537 25.2609V30.3976C104.536 30.8516 104.354 31.2868 104.032 31.6077C103.709 31.9287 103.271 32.1093 102.815 32.1098Z" fill="#0052FF"/>
    <path d="M107.406 32.1098C106.95 32.1093 106.512 31.9287 106.189 31.6077C105.867 31.2868 105.685 30.8516 105.684 30.3976V25.2609C105.685 24.8072 105.867 24.3722 106.189 24.0516C106.512 23.7309 106.95 23.5508 107.406 23.5508C107.863 23.5508 108.3 23.7309 108.623 24.0516C108.946 24.3722 109.128 24.8072 109.128 25.2609V30.3976C109.128 30.8516 108.946 31.2868 108.623 31.6077C108.3 31.9287 107.863 32.1093 107.406 32.1098Z" fill="#0052FF"/>
    <path d="M111.998 32.1098C111.541 32.1093 111.104 31.9287 110.781 31.6077C110.458 31.2868 110.276 30.8516 110.276 30.3976V25.2609C110.276 24.8072 110.458 24.3722 110.781 24.0516C111.104 23.7309 111.541 23.5508 111.998 23.5508C112.454 23.5508 112.892 23.7309 113.214 24.0516C113.537 24.3722 113.719 24.8072 113.72 25.2609V30.3976C113.719 30.8516 113.537 31.2868 113.215 31.6077C112.892 31.9287 112.454 32.1093 111.998 32.1098Z" fill="#0052FF"/>
    <path d="M119.076 32.1098C118.62 32.1093 118.182 31.9287 117.86 31.6077C117.537 31.2868 117.355 30.8516 117.355 30.3976V25.2609C117.355 24.8072 117.537 24.3722 117.86 24.0516C118.183 23.7309 118.62 23.5508 119.076 23.5508C119.533 23.5508 119.97 23.7309 120.293 24.0516C120.616 24.3722 120.798 24.8072 120.798 25.2609V30.3976C120.798 30.8516 120.616 31.2868 120.293 31.6077C119.971 31.9287 119.533 32.1093 119.076 32.1098Z" fill="#0052FF"/>
    <path d="M123.668 32.1098C123.211 32.1093 122.774 31.9287 122.451 31.6077C122.128 31.2868 121.947 30.8516 121.946 30.3976V25.2609C121.947 24.8072 122.128 24.3722 122.451 24.0516C122.774 23.7309 123.212 23.5508 123.668 23.5508C124.124 23.5508 124.562 23.7309 124.885 24.0516C125.208 24.3722 125.389 24.8072 125.39 25.2609V30.3976C125.389 30.8516 125.208 31.2868 124.885 31.6077C124.562 31.9287 124.124 32.1093 123.668 32.1098Z" fill="#0052FF"/>
    <path d="M128.26 32.1098C127.803 32.1093 127.365 31.9287 127.043 31.6077C126.72 31.2868 126.538 30.8516 126.538 30.3976V25.2609C126.538 24.8072 126.72 24.3722 127.043 24.0516C127.366 23.7309 127.803 23.5508 128.26 23.5508C128.716 23.5508 129.153 23.7309 129.476 24.0516C129.799 24.3722 129.981 24.8072 129.981 25.2609V30.3976C129.981 30.8516 129.799 31.2868 129.476 31.6077C129.154 31.9287 128.716 32.1093 128.26 32.1098Z" fill="#0052FF"/>
    <path d="M135.338 32.1098C134.882 32.1093 134.444 31.9287 134.121 31.6077C133.799 31.2868 133.617 30.8516 133.616 30.3976V25.2609C133.617 24.8072 133.799 24.3722 134.121 24.0516C134.444 23.7309 134.882 23.5508 135.338 23.5508C135.795 23.5508 136.232 23.7309 136.555 24.0516C136.878 24.3722 137.06 24.8072 137.06 25.2609V30.3976C137.06 30.8516 136.878 31.2868 136.555 31.6077C136.232 31.9287 135.795 32.1093 135.338 32.1098Z" fill="#0052FF"/>
    <path d="M139.93 32.1098C139.473 32.1093 139.036 31.9287 138.713 31.6077C138.39 31.2868 138.208 30.8516 138.208 30.3976V25.2609C138.208 24.8072 138.39 24.3722 138.713 24.0516C139.036 23.7309 139.473 23.5508 139.93 23.5508C140.386 23.5508 140.824 23.7309 141.147 24.0516C141.469 24.3722 141.651 24.8072 141.652 25.2609V30.3976C141.651 30.8516 141.469 31.2868 141.147 31.6077C140.824 31.9287 140.386 32.1093 139.93 32.1098Z" fill="#0052FF"/>
    <path d="M144.521 32.1098C144.065 32.1093 143.627 31.9287 143.304 31.6077C142.982 31.2868 142.8 30.8516 142.8 30.3976V25.2609C142.8 24.8072 142.982 24.3722 143.305 24.0516C143.627 23.7309 144.065 23.5508 144.521 23.5508C144.978 23.5508 145.415 23.7309 145.738 24.0516C146.061 24.3722 146.243 24.8072 146.243 25.2609V30.3976C146.243 30.8516 146.061 31.2868 145.738 31.6077C145.416 31.9287 144.978 32.1093 144.521 32.1098Z" fill="#0052FF"/>
    <path d="M98.2265 51.1663H73.4626C73.3105 51.1665 73.1599 51.1369 73.0193 51.0792C72.8788 51.0215 72.751 50.9368 72.6434 50.8299C72.5358 50.723 72.4504 50.5961 72.3922 50.4565C72.3339 50.3168 72.304 50.167 72.304 50.0158C72.304 49.8646 72.3339 49.7148 72.3922 49.5751C72.4504 49.4354 72.5358 49.3085 72.6434 49.2017C72.751 49.0948 72.8788 49.0101 73.0193 48.9524C73.1599 48.8947 73.3105 48.8651 73.4626 48.8653H98.2265C98.5331 48.8657 98.8269 48.9872 99.0435 49.2029C99.2601 49.4186 99.3818 49.711 99.3818 50.0158C99.3818 50.3206 99.2601 50.613 99.0435 50.8287C98.8269 51.0444 98.5331 51.1658 98.2265 51.1663Z" fill="#E8E8F7"/>
    <path d="M90.2869 46.2198H81.4022C81.0954 46.2198 80.8011 46.0986 80.5841 45.8828C80.3671 45.6671 80.2452 45.3744 80.2452 45.0693C80.2452 44.7642 80.3671 44.4715 80.5841 44.2558C80.8011 44.04 81.0954 43.9188 81.4022 43.9188H90.2869C90.5938 43.9188 90.8881 44.04 91.105 44.2558C91.322 44.4715 91.4439 44.7642 91.4439 45.0693C91.4439 45.3744 91.322 45.6671 91.105 45.8828C90.8881 46.0986 90.5938 46.2198 90.2869 46.2198Z" fill="#E8E8F7"/>
    <path d="M161.548 11.373H67.23V11.7535H161.548V11.373Z" fill="#4B4B60"/>
    <path opacity="0.15" d="M56.4456 49.9567L56.2449 49.5063L64.422 45.9001L66.3714 39.0995L63.433 36.737L63.7444 36.3536L66.9378 38.9211L64.835 46.2571L56.4456 49.9567Z" fill="#4B4B60"/>
    <path opacity="0.1" d="M48.4903 49.0433L46.3409 50.0844L42.0063 50.5409C41.328 51.1668 40.5816 51.7154 39.781 52.1768L35.9799 52.0515L29.5599 51.8516L51.2637 33.4484L55.6392 34.517C55.6392 34.517 48.2876 49.4729 48.4903 49.0433Z" fill="#4B4B60"/>
    <path d="M78.8115 43.1538C78.2417 43.2629 77.6171 43.3532 76.9268 43.4224C73.3636 43.7767 65.8312 44.2476 65.167 44.2807C60.7056 44.4895 57.9006 44.4871 57.9006 44.4871L48.4901 49.0433L46.3407 50.0843L28.9187 51.9191L52.5097 31.9156L55.3676 32.6132L60.2045 33.7962L65.5333 35.099L70.157 35.3058L76.1401 35.5726L80.9762 35.7886C81.8141 35.8175 82.6064 36.1749 83.1801 36.7828C83.7539 37.3907 84.0624 38.1997 84.0383 39.033C83.9625 40.6195 82.856 42.3723 78.8115 43.1538Z" fill="#FFB7B7"/>
    <path opacity="0.15" d="M80.6456 41.9479C80.5685 41.9244 78.7516 41.3561 78.175 39.7657C77.7873 38.6965 78.0602 37.4453 78.986 36.0471L79.3998 36.318C78.5655 37.5781 78.3098 38.6809 78.64 39.5956C79.1302 40.9533 80.7742 41.4716 80.7907 41.4766L80.6456 41.9479Z" fill="#4B4B60"/>
    <path opacity="0.15" d="M57.139 44.5813L48.8135 48.6138L49.0305 49.0568L57.356 45.0243L57.139 44.5813Z" fill="#4B4B60"/>
    <path opacity="0.15" d="M54.0303 33.148L65.8235 28.5228L66.0054 28.9813L55.8142 32.9783L64.4754 34.5871L64.3843 35.0715L54.0303 33.148Z" fill="#4B4B60"/>
  </g>
  <defs>
    <clipPath id="clip0_11669_6111">
      <rect width="162" height="61" fill="white"/>
    </clipPath>
  </defs>
</svg>
