<svg width="32" height="32" viewBox="0 0 32 32" fill="none" xmlns="http://www.w3.org/2000/svg">
<path d="M13 6.003V6H23.998C24.55 6 25 6.455 25 6.992V25.008C24.9998 25.2712 24.895 25.5235 24.7088 25.7095C24.5226 25.8955 24.2702 26 24.007 26H7.99302C7.8617 25.9991 7.73185 25.9723 7.61087 25.9212C7.48989 25.8701 7.38017 25.7957 7.28796 25.7022C7.19575 25.6087 7.12286 25.4979 7.07346 25.3762C7.02406 25.2545 6.9991 25.1243 7.00002 24.993V12L13 6.003ZM9.83002 12H13V8.83L9.83002 12ZM15 8V13C15 13.2652 14.8947 13.5196 14.7071 13.7071C14.5196 13.8946 14.2652 14 14 14H9.00002V24H23V8H15Z" fill="#4B4B60"/>
</svg>
