<svg width="42" height="42" viewBox="0 0 42 42" fill="none" xmlns="http://www.w3.org/2000/svg">
<circle cx="21" cy="21" r="21" fill="#F2F2F7"/>
<mask id="mask0_42541_4274" style="mask-type:alpha" maskUnits="userSpaceOnUse" x="5" y="5" width="32" height="32">
<rect x="5" y="5" width="32" height="32" fill="#C4C4C4"/>
</mask>
<g mask="url(#mask0_42541_4274)">
<path d="M21 32C14.9247 32 10 27.0753 10 21C10 14.9247 14.9247 10 21 10C27.0753 10 32 14.9247 32 21C32 27.0753 27.0753 32 21 32ZM21 29.8C23.3339 29.8 25.5722 28.8729 27.2225 27.2225C28.8729 25.5722 29.8 23.3339 29.8 21C29.8 18.6661 28.8729 16.4278 27.2225 14.7775C25.5722 13.1271 23.3339 12.2 21 12.2C18.6661 12.2 16.4278 13.1271 14.7775 14.7775C13.1271 16.4278 12.2 18.6661 12.2 21C12.2 23.3339 13.1271 25.5722 14.7775 27.2225C16.4278 28.8729 18.6661 29.8 21 29.8ZM19.9 25.4H16.6V16.6H19.9V14.4H22.1V16.6H23.2C23.7107 16.6 24.2113 16.7422 24.6458 17.0107C25.0802 17.2792 25.4313 17.6634 25.6597 18.1202C25.8881 18.577 25.9848 19.0883 25.9389 19.597C25.893 20.1056 25.7064 20.5914 25.4 21C25.7064 21.4086 25.893 21.8944 25.9389 22.403C25.9848 22.9117 25.8881 23.423 25.6597 23.8798C25.4313 24.3366 25.0802 24.7208 24.6458 24.9893C24.2113 25.2578 23.7107 25.4 23.2 25.4H22.1V27.6H19.9V25.4ZM18.8 22.1V23.2H23.2C23.3459 23.2 23.4858 23.1421 23.5889 23.0389C23.6921 22.9358 23.75 22.7959 23.75 22.65C23.75 22.5041 23.6921 22.3642 23.5889 22.2611C23.4858 22.1579 23.3459 22.1 23.2 22.1H18.8ZM18.8 18.8V19.9H23.2C23.3459 19.9 23.4858 19.8421 23.5889 19.7389C23.6921 19.6358 23.75 19.4959 23.75 19.35C23.75 19.2041 23.6921 19.0642 23.5889 18.9611C23.4858 18.8579 23.3459 18.8 23.2 18.8H18.8Z" fill="#4B4B60"/>
</g>
</svg>
