<svg width="64" height="32" viewBox="0 0 64 32" fill="none" xmlns="http://www.w3.org/2000/svg">
<path d="M15 6.001V8.013C11.054 8.505 8 11.871 8 15.951C8 20.369 11.582 23.951 16 23.951C17.849 23.951 19.55 23.324 20.906 22.271L22.329 23.694C20.605 25.104 18.4 25.951 16 25.951C10.477 25.951 6 21.474 6 15.951C6 10.766 9.947 6.502 15 6.001ZM25.95 16.951C25.75 18.962 24.956 20.798 23.743 22.279L22.32 20.857C23.18 19.75 23.756 18.412 23.938 16.951H25.951H25.95ZM17.002 6.001C21.726 6.47 25.482 10.227 25.952 14.951H23.939C23.488 11.333 20.62 8.465 17.002 8.013V6V6.001Z" fill="#4B4B60"/>
<path d="M41 7V23H57V25H39V7H41ZM56.293 10.293L57.707 11.707L52 17.414L49 14.415L44.707 18.707L43.293 17.293L49 11.586L52 14.585L56.293 10.293Z" fill="#0052FF"/>
</svg>
