<svg width="32" height="32" viewBox="0 0 32 32" fill="none" xmlns="http://www.w3.org/2000/svg">
<g id="atoms/icons/notification">
<path id="Vector" d="M24 21H26V23H6V21H8V14C8 11.8783 8.84285 9.84344 10.3431 8.34315C11.8434 6.84285 13.8783 6 16 6C18.1217 6 20.1566 6.84285 21.6569 8.34315C23.1571 9.84344 24 11.8783 24 14V21ZM22 21V14C22 12.4087 21.3679 10.8826 20.2426 9.75736C19.1174 8.63214 17.5913 8 16 8C14.4087 8 12.8826 8.63214 11.7574 9.75736C10.6321 10.8826 10 12.4087 10 14V21H22ZM13 25H19V27H13V25Z" fill="#4B4B60"/>
</g>
</svg>
