<svg width="24" height="24" viewBox="0 0 24 24" fill="none" xmlns="http://www.w3.org/2000/svg">
<path d="M0.908228 11.4603L0.891035 11.5L0.908228 11.5397C1.88212 13.7898 3.36054 15.6127 5.34247 17.0068C7.3262 18.4021 9.54634 19.1 12 19.1C14.4537 19.1 16.6738 18.4021 18.6575 17.0068C20.6395 15.6127 22.1179 13.7898 23.0918 11.5397L23.109 11.5L23.0918 11.4603C22.1179 9.21025 20.6395 7.38728 18.6575 5.99321C16.6738 4.59787 14.4537 3.9 12 3.9C9.54634 3.9 7.3262 4.59787 5.34247 5.99321C3.36054 7.38728 1.88212 9.21025 0.908228 11.4603ZM12.003 15.85C13.2105 15.85 14.2393 15.4262 15.0833 14.5802C15.9272 13.7342 16.35 12.7046 16.35 11.497C16.35 10.2895 15.9262 9.2607 15.0802 8.41671C14.2342 7.57277 13.2046 7.15 11.9971 7.15C10.7895 7.15 9.7607 7.57381 8.91671 8.41982C8.07277 9.26576 7.65 10.2954 7.65 11.503C7.65 12.7105 8.07381 13.7393 8.91982 14.5833C9.76576 15.4272 10.7954 15.85 12.003 15.85ZM11.9941 14.2C11.2409 14.2 10.6061 13.9376 10.0835 13.4112C9.56068 12.8846 9.3 12.2475 9.3 11.4941C9.3 10.7409 9.56245 10.1061 10.0888 9.58347C10.6154 9.06068 11.2525 8.8 12.0059 8.8C12.7591 8.8 13.3939 9.06245 13.9165 9.58883C14.4393 10.1154 14.7 10.7525 14.7 11.5059C14.7 12.2591 14.4376 12.8939 13.9112 13.4165C13.3846 13.9393 12.7475 14.2 11.9941 14.2ZM17.5083 15.7785C15.8328 16.8597 13.9961 17.4 11.9958 17.4C9.99548 17.4 8.16018 16.8597 6.48756 15.7785C4.82774 14.7056 3.55282 13.28 2.66172 11.5C3.55282 9.72008 4.82912 8.29444 6.49172 7.22152C8.16717 6.14032 10.0039 5.6 12.0042 5.6C14.0045 5.6 15.8398 6.14032 17.5124 7.22148C19.1723 8.29442 20.439 9.72007 21.3137 11.5C20.439 13.2799 19.1709 14.7055 17.5083 15.7785Z" fill="#4B4B60" stroke="#4B4B60" stroke-width="0.2"/>
</svg>
