<svg width="32" height="32" viewBox="0 0 32 32" fill="none" xmlns="http://www.w3.org/2000/svg">
<g id="atoms/icons/portfolio">
<mask id="mask0_40505_1726" style="mask-type:alpha" maskUnits="userSpaceOnUse" x="0" y="0" width="32" height="32">
<rect id="Rectangle 2" width="32" height="32" fill="#C4C4C4"/>
</mask>
<g mask="url(#mask0_40505_1726)">
<path id="Vector" d="M16 26C10.477 26 6 21.523 6 16C6 11.522 8.943 7.732 13 6.458V8.582C11.2809 9.28005 9.8578 10.5537 8.97406 12.1851C8.09032 13.8165 7.80088 15.7043 8.15525 17.5255C8.50963 19.3468 9.48579 20.9883 10.9168 22.1693C12.3477 23.3503 14.1446 23.9975 16 24C17.5938 24 19.1513 23.524 20.4728 22.6332C21.7944 21.7424 22.82 20.4773 23.418 19H25.542C24.268 23.057 20.478 26 16 26ZM25.95 17H15V6.05C15.329 6.017 15.663 6 16 6C21.523 6 26 10.477 26 16C26 16.337 25.983 16.671 25.95 17ZM17 8.062V15H23.938C23.7154 13.2376 22.9129 11.5993 21.6568 10.3432C20.4007 9.08713 18.7624 8.28459 17 8.062Z" fill="#4B4B60"/>
</g>
</g>
</svg>
