<svg width="42" height="42" viewBox="0 0 42 42" fill="none" xmlns="http://www.w3.org/2000/svg">
<circle cx="21" cy="21" r="21" fill="#F2F2F7"/>
<path d="M19.72 29.7H21.06V27.18C24 26.98 25.74 25.12 25.74 22.78C25.74 20.08 24.02 19.08 21.06 18.6V14.5C22.28 14.7 22.9 15.4 23.12 16.62H25.48C25.24 14.14 23.64 12.8 21.06 12.56V10.74H19.72V12.54C17 12.72 15.22 14.38 15.22 16.6C15.22 19.14 16.76 20.22 19.72 20.72V25.22C17.82 24.98 17.38 23.88 17.22 22.58H14.74C14.94 25 16.3 26.94 19.72 27.18V29.7ZM23.28 23.02C23.28 24.2 22.4 25.04 21.06 25.22V20.94C22.8 21.32 23.28 21.88 23.28 23.02ZM17.58 16.38C17.58 15.38 18.34 14.6 19.72 14.44V18.38C17.96 18.02 17.58 17.42 17.58 16.38Z" fill="#4B4B60"/>
</svg>
